# Blender v2.79 (sub 0) OBJ File: 'Mars 2K.blend'
# www.blender.org
o Mars_Cube.002
v -0.011657 5.931621 -3.249724
v 6.373529 2.348361 -0.440163
v -2.535308 -0.839136 -6.221529
v 3.849877 -4.422396 -3.411968
v -3.849877 4.422396 3.411968
v 2.535308 0.839136 6.221529
v -6.373529 -2.348361 0.440163
v 0.011657 -5.931621 3.249724
vt 0.500060 0.988004
vt 0.254435 0.662695
vt 0.500060 0.662695
vt 0.254435 0.337226
vt 0.500060 0.337226
vt 0.500060 0.011996
vt 0.990949 0.337226
vt 0.745385 0.662695
vt 0.745385 0.337226
vt 0.009051 0.337226
vt 0.254435 0.988004
vt 0.254435 0.011996
vt 0.990949 0.662695
vt 0.009051 0.662695
vn -0.0018 0.8773 -0.4798
vn 0.5651 -0.6536 -0.5034
vn -0.3735 -0.1245 -0.9192
vn 0.0018 -0.8773 0.4798
vn -0.9356 -0.3471 0.0641
vn -0.5651 0.6536 0.5034
vn 0.3735 0.1245 0.9192
vn 0.9356 0.3471 -0.0641
s 1
f 1/1/1 4/2/2 3/3/3
f 3/3/3 8/4/4 7/5/5
f 8/4/4 5/6/6 7/5/5
f 6/7/7 1/8/1 5/9/6
f 3/3/3 5/9/6 1/8/1
f 4/2/2 6/10/7 8/4/4
f 1/1/1 2/11/8 4/2/2
f 3/3/3 4/2/2 8/4/4
f 8/4/4 6/12/7 5/6/6
f 6/7/7 2/13/8 1/8/1
f 3/3/3 7/5/5 5/9/6
f 4/2/2 2/14/8 6/10/7
o Dust_Cube.012
v -0.011710 5.958691 -3.264554
v 6.402615 2.359078 -0.442172
v -2.546878 -0.842966 -6.249921
v 3.867446 -4.442578 -3.427539
v -3.867446 4.442578 3.427539
v 2.546878 0.842966 6.249921
v -6.402615 -2.359078 0.442172
v 0.011710 -5.958691 3.264554
vt 0.500000 0.974629
vt 0.259868 0.657797
vt 0.500000 0.657797
vt 0.259868 0.342203
vt 0.500000 0.342203
vt 0.500000 0.025371
vt 0.980733 0.342203
vt 0.741042 0.657797
vt 0.741042 0.342203
vt 0.019267 0.342203
vt 0.259868 0.974629
vt 0.259868 0.025371
vt 0.980733 0.657797
vt 0.019267 0.657797
vn -0.0018 0.8773 -0.4798
vn 0.5651 -0.6536 -0.5034
vn -0.3735 -0.1245 -0.9192
vn 0.0018 -0.8773 0.4798
vn -0.9356 -0.3471 0.0641
vn -0.5651 0.6536 0.5034
vn 0.3735 0.1245 0.9192
vn 0.9356 0.3471 -0.0641
s 1
f 9/15/9 12/16/10 11/17/11
f 11/17/11 16/18/12 15/19/13
f 16/18/12 13/20/14 15/19/13
f 14/21/15 9/22/9 13/23/14
f 11/17/11 13/23/14 9/22/9
f 12/16/10 14/24/15 16/18/12
f 9/15/9 10/25/16 12/16/10
f 11/17/11 12/16/10 16/18/12
f 16/18/12 14/26/15 13/20/14
f 14/21/15 10/27/16 9/22/9
f 11/17/11 15/19/13 13/23/14
f 12/16/10 10/28/16 14/24/15
o Clouds_Cube.011
v -0.011755 5.981594 -3.277102
v 6.427225 2.368145 -0.443872
v -2.556668 -0.846206 -6.273944
v 3.882311 -4.459653 -3.440713
v -3.882311 4.459653 3.440713
v 2.556668 0.846206 6.273944
v -6.427225 -2.368145 0.443872
v 0.011755 -5.981594 3.277102
vt 0.500000 0.974629
vt 0.259868 0.657797
vt 0.500000 0.657797
vt 0.259868 0.342203
vt 0.500000 0.342203
vt 0.500000 0.025371
vt 0.980733 0.342203
vt 0.741944 0.657797
vt 0.741944 0.342203
vt 0.019267 0.342203
vt 0.259868 0.974629
vt 0.259868 0.025371
vt 0.980733 0.657797
vt 0.019267 0.657797
vn -0.0018 0.8773 -0.4798
vn 0.5651 -0.6536 -0.5034
vn -0.3735 -0.1245 -0.9192
vn 0.0018 -0.8773 0.4798
vn -0.9356 -0.3471 0.0641
vn -0.5651 0.6536 0.5034
vn 0.3735 0.1245 0.9192
vn 0.9356 0.3471 -0.0641
s 1
f 17/29/17 20/30/18 19/31/19
f 19/31/19 24/32/20 23/33/21
f 24/32/20 21/34/22 23/33/21
f 22/35/23 17/36/17 21/37/22
f 19/31/19 21/37/22 17/36/17
f 20/30/18 22/38/23 24/32/20
f 17/29/17 18/39/24 20/30/18
f 19/31/19 20/30/18 24/32/20
f 24/32/20 22/40/23 21/34/22
f 22/35/23 18/41/24 17/36/17
f 19/31/19 23/33/21 21/37/22
f 20/30/18 18/42/24 22/38/23
o Atmosphere_Cube.010
v -0.011803 6.005812 -3.290370
v 6.453247 2.377733 -0.445669
v -2.567019 -0.849632 -6.299346
v 3.898030 -4.477710 -3.454644
v -3.898030 4.477710 3.454644
v 2.567019 0.849632 6.299346
v -6.453247 -2.377733 0.445669
v 0.011803 -6.005812 3.290370
vt 0.500060 0.988004
vt 0.254435 0.662695
vt 0.500060 0.662695
vt 0.254435 0.337226
vt 0.500060 0.337226
vt 0.500060 0.011996
vt 0.990949 0.337226
vt 0.745385 0.662695
vt 0.745385 0.337226
vt 0.009051 0.337226
vt 0.254435 0.988004
vt 0.254435 0.011996
vt 0.990949 0.662695
vt 0.009051 0.662695
vn -0.0018 0.8773 -0.4798
vn 0.5651 -0.6536 -0.5034
vn -0.3735 -0.1245 -0.9192
vn 0.0018 -0.8773 0.4798
vn -0.9356 -0.3471 0.0641
vn -0.5651 0.6536 0.5034
vn 0.3735 0.1245 0.9192
vn 0.9356 0.3471 -0.0641
s 1
f 25/43/25 28/44/26 27/45/27
f 27/45/27 32/46/28 31/47/29
f 32/46/28 29/48/30 31/47/29
f 30/49/31 25/50/25 29/51/30
f 27/45/27 29/51/30 25/50/25
f 28/44/26 30/52/31 32/46/28
f 25/43/25 26/53/32 28/44/26
f 27/45/27 28/44/26 32/46/28
f 32/46/28 30/54/31 29/48/30
f 30/49/31 26/55/32 25/50/25
f 27/45/27 31/47/29 29/51/30
f 28/44/26 26/56/32 30/52/31
